<svg xmlns="http://www.w3.org/2000/svg" viewBox="0 0 100 125" opacity=".1"><path d="M63.9 86.828s-1.564-1.324-2.423-2.183c-.86-.86-1.093-1.634-1.093-1.634l-.68-7.01h-18.95l-.683 7.016s-.234.974-1.094 1.833c-.86.86-2.423 2.09-2.423 2.09s-1.406.716.704 1.028c1.21.178 6.6.032 10.93.032h4.09c4.42 0 9.718.098 10.927-.082 2.11-.313.695-1.09.695-1.09zM93.076 19H7.314C6.084 19 5 20.134 5 21.375V71.74C5 72.983 6.085 74 7.314 74H93.075C94.305 74 95 72.982 95 71.74V21.376c0-1.24-.694-2.375-1.924-2.375zM91 70H9V23h82v47z"/></svg>