<svg style="opacity: 0.1;" xmlns="http://www.w3.org/2000/svg" xmlns:xlink="http://www.w3.org/1999/xlink" version="1.1" x="0px" y="0px" viewBox="0 0 100 125" enable-background="new 0 0 100 100" xml:space="preserve"><g><path d="M63.899,86.828c0,0-1.563-1.324-2.422-2.183c-0.86-0.86-1.093-1.634-1.093-1.634L59.705,76H40.754l-0.683,7.016   c0,0-0.235,0.974-1.095,1.833c-0.859,0.86-2.423,2.091-2.423,2.091s-1.406,0.716,0.704,1.028C38.466,88.146,43.856,88,48.188,88   h4.089c4.42,0,9.718,0.098,10.927-0.082C65.314,87.605,63.899,86.828,63.899,86.828z"/><path d="M93.076,19H7.314C6.085,19,5,20.134,5,21.375v50.366C5,72.982,6.085,74,7.314,74h31.728h1.823h18.729h1.909h31.572   C94.306,74,95,72.982,95,71.741V21.375C95,20.134,94.306,19,93.076,19z M91,70H9V23h82V70z"/></g></svg>
