<svg style="opacity: 0.1;" xmlns="http://www.w3.org/2000/svg" xmlns:xlink="http://www.w3.org/1999/xlink" version="1.1" x="0px" y="0px" viewBox="0 0 100 125" enable-background="new 0 0 100 100" xml:space="preserve"><path fill="#000000" d="M72,11.055C72,7.711,69.29,5,65.947,5H35.053C31.71,5,29,7.711,29,11.055v77.891  C29,92.289,31.71,95,35.053,95h30.895C69.29,95,72,92.289,72,88.945V11.055z M50.458,8.759c1.023,0,1.853,0.829,1.853,1.854  c0,1.023-0.83,1.853-1.853,1.853c-1.023,0-1.853-0.829-1.853-1.853C48.604,9.588,49.434,8.759,50.458,8.759z M50.87,92.111  c-2.184,0-3.954-1.77-3.954-3.954c0-2.183,1.77-3.953,3.954-3.953c2.183,0,3.953,1.771,3.953,3.953  C54.822,90.342,53.053,92.111,50.87,92.111z M69,82H32V18h37V82z"/></svg>
